<svg width="324" height="102" viewBox="0 0 324 102" fill="none" xmlns="http://www.w3.org/2000/svg">
<path d="M18.8046 81.1548C16.4876 84.457 18.8498 89 22.8837 89V89C39.8998 88.6098 53.5909 74.9512 53.9821 57.9756C54.5688 40.2195 40.6821 25.5854 22.8837 25H10C4.47715 25 0 29.4771 0 35V57.3744C0 61.0471 2.97729 64.0244 6.64997 64.0244V64.0244C10.3226 64.0244 13.2999 61.0471 13.2999 57.3744V57.227V50.3659V48.2423C13.2999 42.9493 17.5907 38.6585 22.8837 38.6585V38.6585C32.4675 38.8537 40.4866 46.6585 40.6821 56.4146C41.0287 65.4032 34.7748 73.0135 26.272 74.9046C24.1687 75.3725 22.157 76.3771 20.9194 78.1409L18.8046 81.1548Z" fill="#0D1A1A"/>
<path d="M4.2681 80.2365C7.00528 82.8723 11.3848 82.8723 14.1219 80.2365C16.8591 77.6007 16.6766 73.0822 14.1219 70.4464C12.8446 69.1286 11.0198 68.3755 9.19501 68.3755H9.01253C5.18048 68.3755 2.26082 71.5761 2.26082 75.3415C2.26082 77.0359 2.99075 78.9186 4.2681 80.2365Z" fill="#0D1A1A"/>
<path d="M116.4 62.3C116.4 67.7667 115.167 72.6 112.7 76.8C110.3 80.9333 107.033 84.1667 102.9 86.5C98.8333 88.8333 94.2667 90 89.2 90C84.1333 90 79.5333 88.8333 75.4 86.5C71.3333 84.1667 68.0667 80.9333 65.6 76.8C63.2 72.6 62 67.7667 62 62.3C62 56.8333 63.2 52.0333 65.6 47.9C68.0667 43.7 71.3333 40.4333 75.4 38.1C79.5333 35.7 84.1333 34.5 89.2 34.5C94.2667 34.5 98.8333 35.7 102.9 38.1C107.033 40.4333 110.3 43.7 112.7 47.9C115.167 52.0333 116.4 56.8333 116.4 62.3ZM104.4 62.3C104.4 58.9 103.7 55.9667 102.3 53.5C100.967 50.9667 99.1333 49 96.8 47.6C94.5333 46.2 92 45.5 89.2 45.5C86.4 45.5 83.8333 46.2 81.5 47.6C79.2333 49 77.4 50.9667 76 53.5C74.6667 55.9667 74 58.9 74 62.3C74 65.6333 74.6667 68.5667 76 71.1C77.4 73.5667 79.2333 75.5 81.5 76.9C83.8333 78.3 86.4 79 89.2 79C92 79 94.5333 78.3 96.8 76.9C99.1333 75.5 100.967 73.5667 102.3 71.1C103.7 68.5667 104.4 65.6333 104.4 62.3ZM160.026 78C161.626 78 162.959 78.5333 164.026 79.6C165.092 80.6 165.626 81.9 165.626 83.5C165.626 85.0333 165.092 86.3333 164.026 87.4C162.959 88.4667 161.626 89 160.026 89H127.826C126.159 89 124.826 88.4 123.826 87.2C122.826 86 122.359 84.8 122.426 83.6C122.492 82.6 122.626 81.7333 122.826 81C123.026 80.2 123.526 79.3 124.326 78.3L149.226 46.1L149.026 47.5H128.726C127.126 47.5 125.792 46.9667 124.726 45.9C123.659 44.8333 123.126 43.5 123.126 41.9C123.126 40.3667 123.659 39.1 124.726 38.1C125.792 37.0333 127.126 36.5 128.726 36.5H159.526C161.059 36.5 162.359 37.0667 163.426 38.2C164.492 39.3333 164.959 40.7667 164.826 42.5C164.759 43.1667 164.626 43.8333 164.426 44.5C164.292 45.1667 163.859 45.9667 163.126 46.9L138.626 78.6V78H160.026ZM198.587 90C192.92 90 187.987 88.8333 183.787 86.5C179.653 84.1 176.453 80.8667 174.187 76.8C171.987 72.7333 170.887 68.1333 170.887 63C170.887 57 172.087 51.9 174.487 47.7C176.953 43.4333 180.153 40.1667 184.087 37.9C188.02 35.6333 192.187 34.5 196.587 34.5C199.987 34.5 203.187 35.2 206.187 36.6C209.253 38 211.953 39.9333 214.287 42.4C216.62 44.8 218.453 47.6 219.787 50.8C221.187 54 221.887 57.4 221.887 61C221.82 62.6 221.187 63.9 219.987 64.9C218.787 65.9 217.387 66.4 215.787 66.4H177.587L174.587 56.4H211.287L209.087 58.4V55.7C208.953 53.7667 208.253 52.0333 206.987 50.5C205.787 48.9667 204.253 47.7667 202.387 46.9C200.587 45.9667 198.653 45.5 196.587 45.5C194.587 45.5 192.72 45.7667 190.987 46.3C189.253 46.8333 187.753 47.7333 186.487 49C185.22 50.2667 184.22 51.9667 183.487 54.1C182.753 56.2333 182.387 58.9333 182.387 62.2C182.387 65.8 183.12 68.8667 184.587 71.4C186.12 73.8667 188.053 75.7667 190.387 77.1C192.787 78.3667 195.32 79 197.987 79C200.453 79 202.42 78.8 203.887 78.4C205.353 78 206.52 77.5333 207.387 77C208.32 76.4 209.153 75.9 209.887 75.5C211.087 74.9 212.22 74.6 213.287 74.6C214.753 74.6 215.953 75.1 216.887 76.1C217.887 77.1 218.387 78.2667 218.387 79.6C218.387 81.4 217.453 83.0333 215.587 84.5C213.853 85.9667 211.42 87.2667 208.287 88.4C205.153 89.4667 201.92 90 198.587 90ZM238.371 89C236.638 89 235.204 88.4333 234.071 87.3C232.938 86.1 232.371 84.6333 232.371 82.9V41.6C232.371 39.8667 232.938 38.4333 234.071 37.3C235.204 36.1 236.638 35.5 238.371 35.5C240.104 35.5 241.538 36.1 242.671 37.3C243.804 38.4333 244.371 39.8667 244.371 41.6V51L243.671 44.3C244.404 42.7 245.338 41.3 246.471 40.1C247.671 38.8333 249.004 37.8 250.471 37C251.938 36.1333 253.504 35.5 255.171 35.1C256.838 34.7 258.504 34.5 260.171 34.5C262.171 34.5 263.838 35.0667 265.171 36.2C266.571 37.3333 267.271 38.6667 267.271 40.2C267.271 42.4 266.704 44 265.571 45C264.438 45.9333 263.204 46.4 261.871 46.4C260.604 46.4 259.438 46.1667 258.371 45.7C257.371 45.2333 256.204 45 254.871 45C253.671 45 252.438 45.3 251.171 45.9C249.971 46.4333 248.838 47.3 247.771 48.5C246.771 49.7 245.938 51.2 245.271 53C244.671 54.7333 244.371 56.8 244.371 59.2V82.9C244.371 84.6333 243.804 86.1 242.671 87.3C241.538 88.4333 240.104 89 238.371 89ZM325.384 62.3C325.384 67.7667 324.151 72.6 321.684 76.8C319.284 80.9333 316.018 84.1667 311.884 86.5C307.818 88.8333 303.251 90 298.184 90C293.118 90 288.518 88.8333 284.384 86.5C280.318 84.1667 277.051 80.9333 274.584 76.8C272.184 72.6 270.984 67.7667 270.984 62.3C270.984 56.8333 272.184 52.0333 274.584 47.9C277.051 43.7 280.318 40.4333 284.384 38.1C288.518 35.7 293.118 34.5 298.184 34.5C303.251 34.5 307.818 35.7 311.884 38.1C316.018 40.4333 319.284 43.7 321.684 47.9C324.151 52.0333 325.384 56.8333 325.384 62.3ZM313.384 62.3C313.384 58.9 312.684 55.9667 311.284 53.5C309.951 50.9667 308.118 49 305.784 47.6C303.518 46.2 300.984 45.5 298.184 45.5C295.384 45.5 292.818 46.2 290.484 47.6C288.218 49 286.384 50.9667 284.984 53.5C283.651 55.9667 282.984 58.9 282.984 62.3C282.984 65.6333 283.651 68.5667 284.984 71.1C286.384 73.5667 288.218 75.5 290.484 76.9C292.818 78.3 295.384 79 298.184 79C300.984 79 303.518 78.3 305.784 76.9C308.118 75.5 309.951 73.5667 311.284 71.1C312.684 68.5667 313.384 65.6333 313.384 62.3Z" fill="#101827"/>
</svg>
